<svg xmlns="http://www.w3.org/2000/svg" height="257.333" width="257.333"><defs><clipPath id="a" clipPathUnits="userSpaceOnUse"><path d="M963.559 162.574h.574c442.247.156 800.807 358.805 800.807 801.219 0 442.487-358.71 801.187-801.096 801.187-442.418 0-801.067-358.55-801.223-800.902v-.57c.156-442.278 358.652-800.778 800.938-800.934z"/></clipPath></defs><path d="M0 .325h257.008v257.008H0V.325"/><g clip-path="url(#a)" transform="matrix(.13333 0 0 -.13333 0 257.333)"><path d="M963.559 162.574h.574c442.247.156 800.807 358.805 800.807 801.219 0 442.487-358.71 801.187-801.096 801.187-442.418 0-801.067-358.55-801.223-800.902v-.57c.156-442.278 358.652-800.778 800.938-800.934zM1764.94 1764.98H162.62V162.57h1602.32zm-608.88-528.79h1466.48c0 809.91-656.57 1466.48-1466.48 1466.48-809.912 0-1466.482-656.57-1466.482-1466.48 0-809.913 656.57-1466.479 1466.482-1466.479 809.91 0 1466.48 656.566 1466.48 1466.479" fill="#d91920"/><path d="M1156.06 1236.19h879.89c0 485.94-393.95 879.88-879.89 879.88-485.947 0-879.888-393.94-879.888-879.88 0-485.948 393.941-879.889 879.888-879.889 485.94 0 879.89 393.941 879.89 879.889" fill="#d91920"/><path d="M1156.06 1236.19h866.14c0 478.35-387.79 866.14-866.14 866.14-478.353 0-866.142-387.79-866.142-866.14 0-478.354 387.789-866.139 866.142-866.139 478.35 0 866.14 387.785 866.14 866.139" fill="#d91c21"/><path d="M1156.06 1236.19h852.39c0 470.76-381.63 852.39-852.39 852.39-470.763 0-852.392-381.63-852.392-852.39 0-470.764 381.629-852.393 852.392-852.393 470.76 0 852.39 381.629 852.39 852.393" fill="#da1e22"/><path d="M1156.06 1236.19h838.64c0 463.17-375.47 838.64-838.64 838.64-463.169 0-838.646-375.47-838.646-838.64 0-463.17 375.477-838.643 838.646-838.643 463.17 0 838.64 375.473 838.64 838.643" fill="#da2123"/><path d="M1156.06 1236.19h824.89c0 455.57-369.32 824.89-824.89 824.89-455.576 0-824.896-369.32-824.896-824.89 0-455.577 369.32-824.897 824.896-824.897 455.57 0 824.89 369.32 824.89 824.897" fill="#db2325"/><path d="M1156.06 1236.19h811.14c0 447.98-363.16 811.15-811.14 811.15-447.982 0-811.146-363.17-811.146-811.15 0-447.983 363.164-811.147 811.146-811.147 447.98 0 811.14 363.164 811.14 811.147" fill="#db2626"/><path d="M1156.06 1236.19h797.4c0 440.39-357.01 797.4-797.4 797.4-440.392 0-797.4-357.01-797.4-797.4 0-440.393 357.008-797.401 797.4-797.401 440.39 0 797.4 357.008 797.4 797.401" fill="#dc2827"/><path d="M1156.06 1236.19h783.65c0 432.79-350.85 783.65-783.65 783.65-432.798 0-783.65-350.86-783.65-783.65 0-432.799 350.852-783.651 783.65-783.651 432.8 0 783.65 350.852 783.65 783.651" fill="#dc2b28"/><path d="M1156.06 1236.19h769.9c0 425.2-344.7 769.9-769.9 769.9-425.205 0-769.904-344.7-769.904-769.9 0-425.206 344.699-769.905 769.904-769.905 425.2 0 769.9 344.699 769.9 769.905" fill="#dd2e2a"/><path d="M1156.06 1236.19h756.15c0 417.61-338.54 756.15-756.15 756.15-417.611 0-756.154-338.54-756.154-756.15 0-417.612 338.543-756.155 756.154-756.155 417.61 0 756.15 338.543 756.15 756.155" fill="#dd302b"/><path d="M1156.06 1236.19h742.4c0 410.01-332.39 742.4-742.4 742.4-410.017 0-742.408-332.39-742.408-742.4 0-410.018 332.391-742.409 742.408-742.409 410.01 0 742.4 332.391 742.4 742.409" fill="#dd332d"/><path d="M1156.06 1236.19h728.65c0 402.42-326.23 728.65-728.65 728.65-402.427 0-728.658-326.23-728.658-728.65 0-402.428 326.231-728.659 728.658-728.659 402.42 0 728.65 326.231 728.65 728.659" fill="#de352e"/><path d="M1156.06 1236.19h714.91c0 394.83-320.08 714.91-714.91 714.91-394.833 0-714.912-320.08-714.912-714.91 0-394.835 320.079-714.909 714.912-714.909 394.83 0 714.91 320.074 714.91 714.909" fill="#de3830"/><path d="M1156.06 1236.19h701.16c0 387.24-313.92 701.16-701.16 701.16-387.24 0-701.162-313.92-701.162-701.16 0-387.241 313.922-701.163 701.162-701.163s701.16 313.922 701.16 701.163" fill="#df3b31"/><path d="M1156.06 1236.19h687.41c0 379.64-307.77 687.41-687.41 687.41-379.646 0-687.415-307.77-687.415-687.41 0-379.647 307.769-687.413 687.415-687.413 379.64 0 687.41 307.766 687.41 687.413" fill="#df3e33"/><path d="M1156.06 1236.19h673.66c0 372.05-301.61 673.66-673.66 673.66-372.052 0-673.665-301.61-673.665-673.66 0-372.053 301.613-673.667 673.665-673.667 372.05 0 673.66 301.614 673.66 673.667" fill="#e04135"/><path d="M1156.06 1236.19h659.91c0 364.46-295.45 659.92-659.91 659.92-364.462 0-659.915-295.46-659.915-659.92 0-364.463 295.453-659.917 659.915-659.917 364.46 0 659.91 295.454 659.91 659.917" fill="#e04337"/><path d="M1156.06 1236.19h646.17c0 356.86-289.3 646.17-646.17 646.17-356.869 0-646.169-289.31-646.169-646.17 0-356.87 289.3-646.17 646.169-646.17 356.87 0 646.17 289.3 646.17 646.17" fill="#e14639"/><path d="M1156.06 1236.19h632.42c0 349.27-283.15 632.42-632.42 632.42-349.275 0-632.419-283.15-632.419-632.42 0-349.276 283.144-632.42 632.419-632.42 349.27 0 632.42 283.144 632.42 632.42" fill="#e1493b"/><path d="M1156.06 1236.19h618.67c0 341.68-276.99 618.67-618.67 618.67-341.681 0-618.673-276.99-618.673-618.67 0-341.682 276.992-618.674 618.673-618.674 341.68 0 618.67 276.992 618.67 618.674" fill="#e24c3d"/><path d="M1156.06 1236.19h604.92c0 334.08-270.84 604.92-604.92 604.92-334.087 0-604.923-270.84-604.923-604.92 0-334.088 270.836-604.924 604.923-604.924 334.08 0 604.92 270.836 604.92 604.924" fill="#e24f3f"/><path d="M1156.06 1236.19h591.17c0 326.49-264.68 591.17-591.17 591.17-326.497 0-591.177-264.68-591.177-591.17 0-326.499 264.68-591.178 591.177-591.178 326.49 0 591.17 264.679 591.17 591.178" fill="#e35241"/><path d="M1156.06 1236.19h577.42c0 318.9-258.52 577.42-577.42 577.42-318.904 0-577.427-258.52-577.427-577.42 0-318.905 258.523-577.428 577.427-577.428 318.9 0 577.42 258.523 577.42 577.428" fill="#e35543"/><path d="M1156.06 1236.19h563.68c0 311.31-252.37 563.68-563.68 563.68-311.31 0-563.681-252.37-563.681-563.68 0-311.311 252.371-563.678 563.681-563.678 311.31 0 563.68 252.367 563.68 563.678" fill="#e45746"/><path d="M1156.06 1236.19h549.93c0 303.71-246.22 549.93-549.93 549.93-303.716 0-549.931-246.22-549.931-549.93 0-303.717 246.215-549.932 549.931-549.932 303.71 0 549.93 246.215 549.93 549.932" fill="#e45b48"/><path d="M1156.06 1236.19h536.18c0 296.12-240.06 536.18-536.18 536.18-296.122 0-536.185-240.06-536.185-536.18 0-296.124 240.063-536.182 536.185-536.182 296.12 0 536.18 240.058 536.18 536.182" fill="#e55e4a"/><path d="M1156.06 1236.19h522.43c0 288.53-233.9 522.43-522.43 522.43-288.533 0-522.435-233.9-522.435-522.43 0-288.534 233.902-522.436 522.435-522.436 288.53 0 522.43 233.902 522.43 522.436" fill="#e5604d"/><path d="M1156.06 1236.19h508.68c0 280.94-227.74 508.69-508.68 508.69-280.939 0-508.685-227.75-508.685-508.69s227.746-508.686 508.685-508.686c280.94 0 508.68 227.746 508.68 508.686" fill="#e6634f"/><path d="M1156.06 1236.19H1651c0 273.34-221.6 494.94-494.94 494.94-273.345 0-494.939-221.6-494.939-494.94 0-273.346 221.594-494.94 494.939-494.94 273.34 0 494.94 221.594 494.94 494.94" fill="#e66752"/><path d="M1156.06 1236.19h481.19c0 265.75-215.44 481.19-481.19 481.19-265.751 0-481.189-215.44-481.189-481.19 0-265.752 215.438-481.19 481.189-481.19 265.75 0 481.19 215.438 481.19 481.19" fill="#e76a55"/><path d="M1156.06 1236.19h467.44c0 258.15-209.29 467.44-467.44 467.44-258.158 0-467.443-209.29-467.443-467.44 0-258.159 209.285-467.444 467.443-467.444 258.15 0 467.44 209.285 467.44 467.444" fill="#e76d57"/><path d="M1156.06 1236.19h453.69c0 250.56-203.12 453.69-453.69 453.69-250.568 0-453.693-203.13-453.693-453.69 0-250.569 203.125-453.694 453.693-453.694 250.57 0 453.69 203.125 453.69 453.694" fill="#e8705a"/><path d="M1156.06 1236.19H1596c0 242.97-196.97 439.94-439.94 439.94-242.974 0-439.947-196.97-439.947-439.94 0-242.975 196.973-439.944 439.947-439.944 242.97 0 439.94 196.969 439.94 439.944" fill="#e8735d"/><path d="M1156.06 1236.19h426.19c0 235.38-190.81 426.19-426.19 426.19s-426.197-190.81-426.197-426.19S920.68 809.992 1156.06 809.992s426.19 190.818 426.19 426.198" fill="#e97660"/><path d="M1156.06 1236.19h412.44c0 227.78-184.66 412.45-412.44 412.45-227.787 0-412.451-184.67-412.451-412.45 0-227.79 184.664-412.448 412.451-412.448 227.78 0 412.44 184.658 412.44 412.448" fill="#e97a63"/><path d="M1156.06 1236.19h398.7c0 220.19-178.51 398.7-398.7 398.7-220.197 0-398.701-178.51-398.701-398.7 0-220.2 178.504-398.702 398.701-398.702 220.19 0 398.7 178.502 398.7 398.702" fill="#ea7d66"/><path d="M1156.06 1236.19h384.95c0 212.6-172.35 384.95-384.95 384.95-212.603 0-384.951-172.35-384.951-384.95s172.348-384.952 384.951-384.952c212.6 0 384.95 172.352 384.95 384.952" fill="#ea8069"/><path d="M1156.06 1236.19h371.2c0 205.01-166.19 371.2-371.2 371.2-205.009 0-371.205-166.19-371.205-371.2s166.196-371.206 371.205-371.206c205.01 0 371.2 166.196 371.2 371.206" fill="#eb836d"/><path d="M1156.06 1236.19h357.45c0 197.41-160.04 357.45-357.45 357.45-197.415 0-357.455-160.04-357.455-357.45 0-197.42 160.04-357.456 357.455-357.456 197.41 0 357.45 160.036 357.45 357.456" fill="#eb8770"/><path d="M1156.06 1236.19h343.71c0 189.82-153.89 343.7-343.71 343.7-189.822 0-343.708-153.88-343.708-343.7s153.886-343.71 343.708-343.71c189.82 0 343.71 153.89 343.71 343.71" fill="#ec8a73"/><path d="M1156.06 1236.19h329.96c0 182.23-147.73 329.95-329.96 329.95-182.232 0-329.958-147.72-329.958-329.95s147.726-329.96 329.958-329.96c182.23 0 329.96 147.73 329.96 329.96" fill="#ed8d77"/><path d="M1156.06 1236.19h316.21c0 174.63-141.57 316.21-316.21 316.21-174.638 0-316.212-141.58-316.212-316.21 0-174.64 141.574-316.213 316.212-316.213 174.64 0 316.21 141.573 316.21 316.213" fill="#ed917a"/><path d="M1156.06 1236.19h302.46c0 167.04-135.42 302.46-302.46 302.46-167.044 0-302.462-135.42-302.462-302.46 0-167.05 135.418-302.463 302.462-302.463 167.04 0 302.46 135.413 302.46 302.463" fill="#ee947e"/><path d="M1156.06 1236.19h288.71c0 159.45-129.26 288.71-288.71 288.71-159.451 0-288.716-129.26-288.716-288.71s129.265-288.713 288.716-288.713c159.45 0 288.71 129.263 288.71 288.713" fill="#ee9781"/><path d="M1156.06 1236.19h274.96c0 151.85-123.11 274.96-274.96 274.96-151.86 0-274.966-123.11-274.966-274.96 0-151.86 123.106-274.967 274.966-274.967 151.85 0 274.96 123.107 274.96 274.967" fill="#ef9b85"/><path d="M1156.06 1236.19h261.21c0 144.26-116.95 261.22-261.21 261.22-144.27 0-261.216-116.96-261.216-261.22 0-144.27 116.946-261.217 261.216-261.217 144.26 0 261.21 116.947 261.21 261.217" fill="#ef9e89"/><path d="M1156.06 1236.19h247.47c0 136.67-110.8 247.47-247.47 247.47-136.67 0-247.47-110.8-247.47-247.47 0-136.67 110.8-247.471 247.47-247.471 136.67 0 247.47 110.801 247.47 247.471" fill="#f0a28c"/><path d="M1156.06 1236.19h233.72c0 129.08-104.64 233.72-233.72 233.72-129.08 0-233.72-104.64-233.72-233.72 0-129.08 104.64-233.72 233.72-233.72 129.08 0 233.72 104.64 233.72 233.72" fill="#f0a590"/><path d="M1156.06 1236.19h219.97c0 121.48-98.49 219.97-219.97 219.97-121.49 0-219.974-98.49-219.974-219.97 0-121.49 98.484-219.98 219.974-219.98 121.48 0 219.97 98.49 219.97 219.98" fill="#f1a994"/><path d="M1156.06 1236.19h206.22c0 113.89-92.33 206.22-206.22 206.22s-206.224-92.33-206.224-206.22 92.334-206.23 206.224-206.23c113.89 0 206.22 92.34 206.22 206.23" fill="#f1ac98"/><path d="M1156.06 1236.19h192.48c0 106.3-86.18 192.47-192.48 192.47-106.3 0-192.478-86.17-192.478-192.47s86.178-192.48 192.478-192.48c106.3 0 192.48 86.18 192.48 192.48" fill="#f2b09c"/><path d="M1156.06 1236.19h178.73c0 98.7-80.02 178.72-178.73 178.72s-178.728-80.02-178.728-178.72c0-98.71 80.018-178.73 178.728-178.73 98.71 0 178.73 80.02 178.73 178.73" fill="#f2b4a0"/><path d="M1156.06 1236.19h164.98c0 91.11-73.87 164.98-164.98 164.98-91.11 0-164.982-73.87-164.982-164.98 0-91.12 73.872-164.98 164.982-164.98s164.98 73.86 164.98 164.98" fill="#f3b7a5"/><path d="M1156.06 1236.19h151.23c0 83.52-67.71 151.23-151.23 151.23s-151.23-67.71-151.23-151.23 67.71-151.23 151.23-151.23 151.23 67.71 151.23 151.23" fill="#f3bba9"/><path d="M1156.06 1236.19h137.48c0 75.92-61.56 137.48-137.48 137.48-75.93 0-137.49-61.56-137.49-137.48 0-75.93 61.56-137.48 137.49-137.48 75.92 0 137.48 61.55 137.48 137.48" fill="#f4bead"/><path d="M1156.06 1236.19h123.73c0 68.33-55.4 123.73-123.73 123.73-68.34 0-123.74-55.4-123.74-123.73 0-68.34 55.4-123.74 123.74-123.74 68.33 0 123.73 55.4 123.73 123.74" fill="#f4c2b2"/><path d="M1156.06 1236.19h109.98c0 60.74-49.24 109.99-109.98 109.99s-109.99-49.25-109.99-109.99c0-60.74 49.25-109.99 109.99-109.99 60.74 0 109.98 49.25 109.98 109.99" fill="#f5c6b6"/><path d="M1156.06 1236.19h96.24c0 53.15-43.09 96.24-96.24 96.24-53.15 0-96.24-43.09-96.24-96.24 0-53.15 43.09-96.24 96.24-96.24 53.15 0 96.24 43.09 96.24 96.24" fill="#f6cabb"/><path d="M1156.06 1236.19h82.49c0 45.55-36.94 82.49-82.49 82.49-45.56 0-82.49-36.94-82.49-82.49 0-45.56 36.93-82.49 82.49-82.49 45.55 0 82.49 36.93 82.49 82.49" fill="#f6cdbf"/><path d="M1156.06 1236.19h68.74c0 37.96-30.78 68.74-68.74 68.74-37.96 0-68.74-30.78-68.74-68.74 0-37.96 30.78-68.74 68.74-68.74 37.96 0 68.74 30.78 68.74 68.74" fill="#f7d1c4"/><path d="M1156.06 1236.19h54.99c0 30.37-24.62 54.99-54.99 54.99s-54.99-24.62-54.99-54.99 24.62-54.99 54.99-54.99 54.99 24.62 54.99 54.99" fill="#f7d5c9"/><path d="M1156.06 1236.19h41.24c0 22.77-18.46 41.24-41.24 41.24s-41.25-18.47-41.25-41.24c0-22.78 18.47-41.25 41.25-41.25s41.24 18.47 41.24 41.25" fill="#f8d9ce"/><path d="M1156.06 1236.19h27.49c0 15.18-12.31 27.49-27.49 27.49-15.18 0-27.5-12.31-27.5-27.49 0-15.19 12.32-27.5 27.5-27.5s27.49 12.31 27.49 27.5" fill="#f8ddd3"/><path d="M1156.06 1236.19h13.75c0 7.59-6.16 13.75-13.75 13.75s-13.75-6.16-13.75-13.75 6.16-13.75 13.75-13.75 13.75 6.16 13.75 13.75" fill="#f9e1d8"/></g><path d="M97.619 40.859c33.631-.235 84.945 19.858 89.114 86.433 10.219-6.064 19.211-17.508 26.755-36.779-14.61-32.369-47.16-54.894-84.975-54.894a93.2 93.2 0 00-30.894 5.24m61.771 175.938c-33.632.237-84.945-19.863-89.116-86.434-10.218 6.065-19.21 17.508-26.755 36.782 14.61 32.375 47.16 54.88 84.994 54.88 10.807 0 21.215-1.839 30.878-5.228" fill="#fff"/><path d="M127.86 63.827c-59.384 75.171-4.49 141.501 36.767 150.957 33.533-14.11 57.09-47.288 57.09-85.956 0-12.948-2.642-25.276-7.417-36.48 1.512 56.176-26.867 90.014-85.136 101.49 59.368-75.189 4.473-141.511-36.782-150.966-33.536 14.113-57.076 47.279-57.076 85.956 0 12.947 2.627 25.282 7.402 36.487-1.512-56.191 26.867-90.018 85.151-101.488" fill="#fff"/></svg>